<svg xmlns="http://www.w3.org/2000/svg" viewBox="0 0 460.1418 92"><title>campspot-logo-light</title><path d="M189.53,597.5041h4.7129l-8.35,14.4619h5.2195l-5.3958,9.3457a26.2713,26.2713,0,0,1,15.1316-47.75V566a33.92,33.92,0,0,0-33.92,33.92c0,26.4908,33.92,58.08,33.92,58.08V577.9Z" transform="translate(-166.9291 -566)" style="fill:#2ecc71"/><path d="M200.8489,566v7.5617a26.2713,26.2713,0,0,1,15.1317,47.75l-5.3958-9.3457h5.2194l-8.35-14.4619h4.7128L200.8489,577.9V658s33.92-31.4385,33.92-58.08A33.92,33.92,0,0,0,200.8489,566Z" transform="translate(-166.9291 -566)" style="fill:#049959"/><path d="M221.4649,617.17v-.15c0-14.9156,11.2438-27.1336,27.359-27.1336,7.8705,0,13.1922,2.0988,17.54,5.3221a5.7734,5.7734,0,0,1,2.2487,4.5721,5.6306,5.6306,0,0,1-5.6966,5.6219,6.0574,6.0574,0,0,1-3.448-1.1245,17.2618,17.2618,0,0,0-10.7189-3.7474c-8.8444,0-15.2158,7.3453-15.2158,16.34v.15c0,8.9947,6.2211,16.491,15.2158,16.491a16.8433,16.8433,0,0,0,11.3933-4.1228,5.346,5.346,0,1,1,6.8959,8.17c-4.722,4.1228-10.2687,6.5961-18.6638,6.5961C232.9333,644.1543,221.4649,632.2361,221.4649,617.17Z" transform="translate(-166.9291 -566)" style="fill:#fff"/><path d="M273.7867,635.834l18.2892-41.3a7.1332,7.1332,0,0,1,6.7464-4.5729h.6744a7.0345,7.0345,0,0,1,6.6709,4.5729l18.2892,41.3a5.6245,5.6245,0,0,1,.6,2.3238,5.4713,5.4713,0,0,1-5.4716,5.5471c-2.6984,0-4.4973-1.5747-5.5467-3.9732l-3.5227-8.2447H287.429l-3.673,8.62a5.6692,5.6692,0,0,1-5.3217,3.5979,5.3114,5.3114,0,0,1-5.3221-5.3968A6.1283,6.1283,0,0,1,273.7867,635.834Zm32.456-14.541-7.2709-17.315-7.2705,17.315Z" transform="translate(-166.9291 -566)" style="fill:#fff"/><path d="M330.2309,596.2573a5.7265,5.7265,0,0,1,5.7718-5.7714h1.2741a5.927,5.927,0,0,1,5.2469,2.9982l13.9418,22.7118,14.0169-22.7866a5.65,5.65,0,0,1,5.1718-2.9235h1.2741a5.7265,5.7265,0,0,1,5.7718,5.7714v41.6754a5.7343,5.7343,0,1,1-11.4684,0V611.7734l-10.1188,15.5908a5.3976,5.3976,0,0,1-9.5943,0l-9.9693-15.3657V638.083a5.6308,5.6308,0,0,1-5.6966,5.6219,5.5676,5.5676,0,0,1-5.6215-5.6219Z" transform="translate(-166.9291 -566)" style="fill:#fff"/><path d="M389.8992,596.5572a5.7269,5.7269,0,0,1,5.7714-5.7714h15.6659c12.5174,0,20.0881,7.4208,20.0881,18.14v.15c0,12.1424-9.4444,18.44-21.2123,18.44h-8.77v10.4183a5.7716,5.7716,0,1,1-11.5432,0Zm20.6878,20.6878c5.7714,0,9.1446-3.4476,9.1446-7.9449v-.15c0-5.1718-3.5979-7.9449-9.37-7.9449h-8.92v16.04Z" transform="translate(-166.9291 -566)" style="fill:#fff"/><path d="M436.5248,637.7084a5.3918,5.3918,0,0,1-2.1739-4.3478,5.3114,5.3114,0,0,1,5.3968-5.3221,5.5487,5.5487,0,0,1,3.2981,1.05A22.1316,22.1316,0,0,0,456.463,633.81c4.7224,0,7.57-1.8737,7.57-4.9467v-.15c0-2.9235-1.7989-4.4226-10.5686-6.6716-10.5686-2.6984-17.39-5.6219-17.39-16.04v-.15c0-9.5188,7.6455-15.8159,18.364-15.8159a30.4607,30.4607,0,0,1,16.6406,4.6476,5.3415,5.3415,0,0,1-2.8487,9.8942,5.5354,5.5354,0,0,1-2.9231-.8247c-3.8225-2.2483-7.42-3.5231-11.0183-3.5231-4.4226,0-6.7464,2.024-6.7464,4.5729v.15c0,3.4484,2.2491,4.5729,11.3185,6.8959,10.6437,2.7732,16.64,6.5961,16.64,15.7411v.15c0,10.419-7.9453,16.2652-19.2638,16.2652A33.8666,33.8666,0,0,1,436.5248,637.7084Z" transform="translate(-166.9291 -566)" style="fill:#fff"/><path d="M483.15,596.5572a5.7269,5.7269,0,0,1,5.7718-5.7714h15.6656c12.5178,0,20.0881,7.4208,20.0881,18.14v.15c0,12.1424-9.4444,18.44-21.2127,18.44h-8.77v10.4183a5.7716,5.7716,0,1,1-11.5432,0Zm20.6878,20.6878c5.7718,0,9.1446-3.4476,9.1446-7.9449v-.15c0-5.1718-3.5979-7.9449-9.3693-7.9449h-8.92v16.04Z" transform="translate(-166.9291 -566)" style="fill:#fff"/><path d="M528.5016,617.17v-.15c0-14.9156,11.7679-27.1336,27.9583-27.1336s27.8088,12.0677,27.8088,26.9841v.15c0,14.9164-11.7682,27.1344-27.9587,27.1344S528.5016,632.0866,528.5016,617.17Zm43.699,0v-.15c0-8.9947-6.5961-16.4895-15.8906-16.4895s-15.7407,7.3453-15.7407,16.34v.15c0,8.9947,6.5961,16.491,15.8906,16.491S572.2006,626.1649,572.2006,617.17Z" transform="translate(-166.9291 -566)" style="fill:#fff"/><path d="M599.1126,601.4291H588.0192a5.3217,5.3217,0,1,1,0-10.6433h33.73a5.3217,5.3217,0,1,1,0,10.6433H610.6554v36.5037a5.7714,5.7714,0,1,1-11.5428,0Z" transform="translate(-166.9291 -566)" style="fill:#fff"/></svg>